HIERARCHY
ROOT Hips
{
	OFFSET 0.000000 100.481300 0.000000
	CHANNELS 6 Xposition Yposition Zposition Xrotation Yrotation Zrotation
	JOINT Spine
	{
		OFFSET -0.279200 12.230698 -2.892100
		CHANNELS 3 Xrotation Yrotation Zrotation
		JOINT Spine1
		{
			OFFSET -0.325700 14.269203 -3.374200
			CHANNELS 3 Xrotation Yrotation Zrotation
			JOINT Spine2
			{
				OFFSET -0.372300 16.307602 -0.352600
				CHANNELS 3 Xrotation Yrotation Zrotation
				JOINT Neck
				{
					OFFSET -0.418800 17.814194 8.416900
					CHANNELS 3 Xrotation Yrotation Zrotation
					JOINT Head
					{
						OFFSET 0.000000 7.031097 3.806800
						CHANNELS 3 Xrotation Yrotation Zrotation
						JOINT HeadTop_End
						{
							OFFSET 0.000000 24.646606 12.978600
							CHANNELS 3 Xrotation Yrotation Zrotation
							End Site
							{
								OFFSET 0.000000 27.854965 0.000000
							}
						}
					}
				}
				JOINT LeftShoulder
				{
					OFFSET 16.952999 14.495407 -7.737500
					CHANNELS 3 Xrotation Yrotation Zrotation
					JOINT LeftArm
					{
						OFFSET 9.308998 -2.777710 0.208600
						CHANNELS 3 Xrotation Yrotation Zrotation
						JOINT LeftForeArm
						{
							OFFSET 29.972298 0.000000 0.000000
							CHANNELS 3 Xrotation Yrotation Zrotation
							JOINT LeftHand
							{
								OFFSET 26.026505 0.000000 0.000000
								CHANNELS 3 Xrotation Yrotation Zrotation
								JOINT LeftHandThumb1
								{
									OFFSET 12.240501 -7.147949 9.207150
									CHANNELS 3 Xrotation Yrotation Zrotation
									JOINT LeftHandThumb2
									{
										OFFSET 4.138618 -2.389435 2.389433
										CHANNELS 3 Xrotation Yrotation Zrotation
										JOINT LeftHandThumb3
										{
											OFFSET 2.726913 -1.574387 1.574386
											CHANNELS 3 Xrotation Yrotation Zrotation
											JOINT LeftHandThumb4
											{
												OFFSET 3.941010 -2.275345 2.275342
												CHANNELS 3 Xrotation Yrotation Zrotation
												End Site
												{
													OFFSET -0.005798 5.087799 0.009903
												}
											}
										}
									}
								}
								JOINT LeftHandIndex1
								{
									OFFSET 24.424698 -1.985611 5.953459
									CHANNELS 3 Xrotation Yrotation Zrotation
									JOINT LeftHandIndex2
									{
										OFFSET 6.426697 0.000000 0.000000
										CHANNELS 3 Xrotation Yrotation Zrotation
										JOINT LeftHandIndex3
										{
											OFFSET 5.337898 0.000000 0.000000
											CHANNELS 3 Xrotation Yrotation Zrotation
											JOINT LeftHandIndex4
											{
												OFFSET 4.409401 0.000000 0.000000
												CHANNELS 3 Xrotation Yrotation Zrotation
												End Site
												{
													OFFSET 0.000000 4.409363 0.014373
												}
											}
										}
									}
								}
								JOINT LeftHandMiddle1
								{
									OFFSET 23.810104 0.000000 0.000000
									CHANNELS 3 Xrotation Yrotation Zrotation
									JOINT LeftHandMiddle2
									{
										OFFSET 7.176498 0.000000 0.000000
										CHANNELS 3 Xrotation Yrotation Zrotation
										JOINT LeftHandMiddle3
										{
											OFFSET 6.774902 0.000000 0.000000
											CHANNELS 3 Xrotation Yrotation Zrotation
											JOINT LeftHandMiddle4
											{
												OFFSET 5.403328 0.000000 0.000000
												CHANNELS 3 Xrotation Yrotation Zrotation
												End Site
												{
													OFFSET -0.027702 5.403244 0.017414
												}
											}
										}
									}
								}
								JOINT LeftHandRing1
								{
									OFFSET 22.908401 -0.839279 -6.020567
									CHANNELS 3 Xrotation Yrotation Zrotation
									JOINT LeftHandRing2
									{
										OFFSET 6.337502 0.000000 0.000000
										CHANNELS 3 Xrotation Yrotation Zrotation
										JOINT LeftHandRing3
										{
											OFFSET 5.779297 0.000000 0.000000
											CHANNELS 3 Xrotation Yrotation Zrotation
											JOINT LeftHandRing4
											{
												OFFSET 4.965698 0.000000 0.000000
												CHANNELS 3 Xrotation Yrotation Zrotation
												End Site
												{
													OFFSET 0.000000 4.965668 0.016186
												}
											}
										}
									}
								}
								JOINT LeftHandPinky1
								{
									OFFSET 20.037003 -1.530319 -10.950146
									CHANNELS 3 Xrotation Yrotation Zrotation
									JOINT LeftHandPinky2
									{
										OFFSET 5.254700 0.000000 0.000000
										CHANNELS 3 Xrotation Yrotation Zrotation
										JOINT LeftHandPinky3
										{
											OFFSET 4.810204 0.000000 0.000000
											CHANNELS 3 Xrotation Yrotation Zrotation
											JOINT LeftHandPinky4
											{
												OFFSET 3.647202 0.000000 0.000000
												CHANNELS 3 Xrotation Yrotation Zrotation
												End Site
												{
													OFFSET 0.000000 3.647186 0.011889
												}
											}
										}
									}
								}
							}
						}
					}
				}
				JOINT RightShoulder
				{
					OFFSET -15.141001 14.495407 -7.737500
					CHANNELS 3 Xrotation Yrotation Zrotation
					JOINT RightArm
					{
						OFFSET -9.308998 -2.777710 0.208500
						CHANNELS 3 Xrotation Yrotation Zrotation
						JOINT RightForeArm
						{
							OFFSET -29.972300 0.000000 0.000000
							CHANNELS 3 Xrotation Yrotation Zrotation
							JOINT RightHand
							{
								OFFSET -26.026505 0.000000 0.000000
								CHANNELS 3 Xrotation Yrotation Zrotation
								JOINT RightHandThumb1
								{
									OFFSET -12.240601 -7.148026 9.207092
									CHANNELS 3 Xrotation Yrotation Zrotation
									JOINT RightHandThumb2
									{
										OFFSET -4.138618 -2.389435 2.389433
										CHANNELS 3 Xrotation Yrotation Zrotation
										JOINT RightHandThumb3
										{
											OFFSET -2.726974 -1.574417 1.574421
											CHANNELS 3 Xrotation Yrotation Zrotation
											JOINT RightHandThumb4
											{
												OFFSET -3.941010 -2.275345 2.275343
												CHANNELS 3 Xrotation Yrotation Zrotation
												End Site
												{
													OFFSET 0.005814 5.087799 0.009927
												}
											}
										}
									}
								}
								JOINT RightHandIndex1
								{
									OFFSET -24.424698 -1.985657 5.953444
									CHANNELS 3 Xrotation Yrotation Zrotation
									JOINT RightHandIndex2
									{
										OFFSET -6.426697 0.000000 0.000000
										CHANNELS 3 Xrotation Yrotation Zrotation
										JOINT RightHandIndex3
										{
											OFFSET -5.337898 0.000000 0.000000
											CHANNELS 3 Xrotation Yrotation Zrotation
											JOINT RightHandIndex4
											{
												OFFSET -4.409401 0.000000 0.000000
												CHANNELS 3 Xrotation Yrotation Zrotation
												End Site
												{
													OFFSET 0.000000 4.409363 0.014408
												}
											}
										}
									}
								}
								JOINT RightHandMiddle1
								{
									OFFSET -23.810097 0.000000 0.000000
									CHANNELS 3 Xrotation Yrotation Zrotation
									JOINT RightHandMiddle2
									{
										OFFSET -7.176498 0.000000 0.000000
										CHANNELS 3 Xrotation Yrotation Zrotation
										JOINT RightHandMiddle3
										{
											OFFSET -6.774902 0.000000 0.000000
											CHANNELS 3 Xrotation Yrotation Zrotation
											JOINT RightHandMiddle4
											{
												OFFSET -5.403328 0.000000 0.000000
												CHANNELS 3 Xrotation Yrotation Zrotation
												End Site
												{
													OFFSET 0.027702 5.403244 0.017457
												}
											}
										}
									}
								}
								JOINT RightHandRing1
								{
									OFFSET -22.908302 -0.839325 -6.020576
									CHANNELS 3 Xrotation Yrotation Zrotation
									JOINT RightHandRing2
									{
										OFFSET -6.337502 0.000000 0.000000
										CHANNELS 3 Xrotation Yrotation Zrotation
										JOINT RightHandRing3
										{
											OFFSET -5.779297 0.000000 0.000000
											CHANNELS 3 Xrotation Yrotation Zrotation
											JOINT RightHandRing4
											{
												OFFSET -4.965698 0.000000 0.000000
												CHANNELS 3 Xrotation Yrotation Zrotation
												End Site
												{
													OFFSET 0.000000 4.965668 0.016226
												}
											}
										}
									}
								}
								JOINT RightHandPinky1
								{
									OFFSET -20.037003 -1.530334 -10.950259
									CHANNELS 3 Xrotation Yrotation Zrotation
									JOINT RightHandPinky2
									{
										OFFSET -5.254700 0.000000 0.000000
										CHANNELS 3 Xrotation Yrotation Zrotation
										JOINT RightHandPinky3
										{
											OFFSET -4.810204 0.000000 0.000000
											CHANNELS 3 Xrotation Yrotation Zrotation
											JOINT RightHandPinky4
											{
												OFFSET -3.647202 0.000000 0.000000
												CHANNELS 3 Xrotation Yrotation Zrotation
												End Site
												{
													OFFSET 0.000000 3.647186 0.011917
												}
											}
										}
									}
								}
							}
						}
					}
				}
			}
		}
	}
	JOINT LeftUpLeg
	{
		OFFSET 15.427100 -6.655098 0.678600
		CHANNELS 3 Xrotation Yrotation Zrotation
		JOINT LeftLeg
		{
			OFFSET 4.081073 -39.591068 13.024000
			CHANNELS 3 Xrotation Yrotation Zrotation
			JOINT LeftFoot
			{
				OFFSET -4.081074 -37.707932 -15.979700
				CHANNELS 3 Xrotation Yrotation Zrotation
				JOINT LeftToeBase
				{
					OFFSET 5.346399 -15.068900 20.645000
					CHANNELS 3 Xrotation Yrotation Zrotation
					JOINT LeftToe_End
					{
						OFFSET 2.754700 0.931300 11.300900
						CHANNELS 3 Xrotation Yrotation Zrotation
						End Site
						{
							OFFSET 0.000000 11.669021 0.000000
						}
					}
				}
			}
		}
	}
	JOINT RightUpLeg
	{
		OFFSET -15.569500 -6.655098 0.678600
		CHANNELS 3 Xrotation Yrotation Zrotation
		JOINT RightLeg
		{
			OFFSET -4.081825 -39.591045 13.023800
			CHANNELS 3 Xrotation Yrotation Zrotation
			JOINT RightFoot
			{
				OFFSET 4.081824 -37.707954 -15.979600
				CHANNELS 3 Xrotation Yrotation Zrotation
				JOINT RightToeBase
				{
					OFFSET -5.346400 -15.068900 20.645000
					CHANNELS 3 Xrotation Yrotation Zrotation
					JOINT RightToe_End
					{
						OFFSET -2.754700 0.931300 11.300900
						CHANNELS 3 Xrotation Yrotation Zrotation
						End Site
						{
							OFFSET 0.000000 11.669021 0.000000
						}
					}
				}
			}
		}
	}
}
MOTION
Frames: 4
Frame Time: 0.033333
237.916916 92.734215 44.037544 -2.187149 5.275394 -158.925497 6.846320 -2.193826 -9.583998 0.772359 -0.053495 -0.772964 0.772095 -0.025495 -0.779455 0.902543 0.646436 3.173501 22.677541 13.818950 2.747107 -0.000001 0.000000 0.000001 6.690674 2.666131 1.635244 -111.509532 7.614426 -32.203737 -0.000127 -98.965042 -0.000103 58.372320 0.701343 74.486239 -5.552768 -7.551858 18.714618 3.712971 4.154852 3.111436 -15.226840 -16.684366 9.533077 0.000003 0.000001 0.000000 0.528970 -14.384662 -2.991640 0.041063 0.693168 -6.780483 0.051161 0.773373 -7.569338 0.000000 0.000002 0.000001 0.020220 -0.774899 -0.953843 0.119379 1.177854 -11.574121 0.000061 -0.025871 0.252229 0.000000 -0.000002 -0.000000 0.299986 9.706140 -1.500838 0.031060 0.603150 -5.896246 0.001597 0.136830 -1.335327 0.000001 0.000001 0.000001 -11.642315 21.556248 3.244088 0.048245 0.751128 -7.350360 0.040763 0.690650 -6.755502 0.000001 0.000000 0.000000 -4.329750 -17.227156 -27.623985 -98.178655 -13.393220 27.903549 0.001729 94.520645 -0.001761 13.945232 -5.748689 -88.111879 -6.133792 8.834068 -18.033707 4.829368 -7.494547 -4.156484 -12.128294 9.497873 -12.465172 -0.000000 -0.000001 -0.000001 1.992900 12.707832 -0.846228 0.093963 -0.931807 11.516653 0.093964 -0.931799 11.516649 0.000000 -0.000001 -0.000001 0.132469 1.167403 -1.290085 0.156934 -1.200046 14.900688 0.002643 0.157033 -1.928182 0.000000 0.000000 0.000000 0.081488 -8.841397 0.026952 0.052395 -0.697384 8.593404 0.013545 -0.355318 4.365959 0.000001 -0.000000 0.000000 -2.275180 -22.441464 -3.663004 0.076566 -0.841900 10.392489 0.076563 -0.841897 10.392485 0.000001 0.000002 -0.000000 -56.858231 -11.727586 75.647357 17.610794 6.173904 4.930773 -8.325311 27.851427 -3.038492 0.115066 0.000001 0.000021 -0.000001 -0.000000 0.000001 -78.466764 -2.692950 -53.894000 18.022895 -3.765379 -8.082917 -0.185275 -9.792235 20.612661 -3.617672 -0.000004 0.000002 -0.000001 -0.000001 -0.000002 
241.407379 91.088799 43.207973 -3.054991 9.621973 -165.867688 8.752711 0.680483 -4.850890 0.459079 0.553555 -0.463458 0.455560 0.559590 -0.465068 0.779867 0.593418 3.342422 25.241311 14.099687 1.072706 -0.000001 -0.000002 -0.000002 6.543963 3.858860 1.457372 -112.281384 10.166035 -34.084157 0.000326 -100.890138 0.000314 59.517954 -1.605379 74.333898 -5.552560 -7.551619 18.713870 3.713883 4.154946 3.108963 -15.226935 -16.684680 9.532967 0.000001 0.000000 0.000002 0.528999 -14.384827 -2.991474 0.041079 0.693323 -6.781758 0.051210 0.773747 -7.572953 -0.000002 0.000000 0.000001 0.020223 -0.775592 -0.953656 0.119419 1.178080 -11.576094 0.000060 -0.025636 0.249798 0.000001 0.000001 -0.000001 0.300021 9.706315 -1.501063 0.031073 0.603254 -5.897465 0.001603 0.137119 -1.338088 -0.000000 0.000001 0.000001 -11.643306 21.556301 3.244942 0.048264 0.751272 -7.351850 0.040815 0.691004 -6.759122 -0.000002 0.000000 -0.000001 -2.772929 -15.202860 -23.036700 -97.951354 -11.521711 26.367300 0.000157 98.590086 -0.000158 13.518397 -8.084171 -88.774755 -6.006344 8.752985 -17.858412 4.856221 -7.564485 -4.166065 -12.092197 9.432615 -12.487736 0.000000 0.000001 -0.000000 1.974697 12.624806 -0.847289 0.096795 -0.945583 11.689648 0.096800 -0.945592 11.689650 -0.000000 0.000000 0.000001 0.125290 1.163439 -1.168237 0.159033 -1.207893 15.000511 0.002373 0.148867 -1.827776 -0.000000 -0.000000 -0.000001 0.105047 -8.813046 0.238026 0.054052 -0.708263 8.728178 0.014388 -0.366206 4.500168 0.000000 -0.000000 0.000000 -2.207316 -22.392760 -3.358132 0.078589 -0.852845 10.529189 0.078581 -0.852864 10.529196 -0.000001 -0.000001 0.000001 -53.645156 -9.118024 72.307012 21.585056 5.859619 5.381136 -10.673520 28.764799 -3.004005 0.831076 -0.000005 0.000008 -0.000000 0.000001 0.000000 -85.284051 2.923722 -55.381418 14.123830 -3.633003 -8.359824 -2.711116 -14.185006 16.944950 1.928442 -0.000003 0.000018 -0.000000 0.000001 0.000002 
245.004700 90.320351 42.730858 -2.378549 13.365436 -173.155158 10.270906 2.525413 0.322699 0.608097 0.766911 0.089053 0.610221 0.761126 0.086516 0.652256 0.816451 2.209539 25.525856 14.215207 -0.004889 -0.000000 0.000001 -0.000000 6.038553 6.434228 1.631933 -113.127166 12.719025 -34.745736 0.000297 -101.302962 0.000295 59.990159 -3.671162 74.351021 -5.554679 -7.553084 18.717594 3.714630 4.155158 3.105995 -15.227026 -16.685015 9.532846 0.000004 -0.000000 -0.000003 0.529030 -14.384997 -2.991299 0.041082 0.693300 -6.781736 0.051210 0.773782 -7.573144 0.000000 -0.000002 -0.000002 0.020231 -0.776066 -0.953430 0.119422 1.178074 -11.576159 0.000060 -0.025599 0.249671 -0.000000 -0.000002 -0.000001 0.300004 9.706394 -1.500923 0.031072 0.603246 -5.897430 0.001600 0.137140 -1.338182 -0.000000 -0.000000 -0.000001 -11.644064 21.556407 3.245733 0.048265 0.751276 -7.351816 0.040813 0.691026 -6.759272 0.000001 0.000000 -0.000002 0.586860 -12.571498 -20.151327 -101.226375 -9.508193 25.698592 0.000313 100.425241 -0.000322 14.102351 -9.699263 -88.822041 -6.005750 8.752408 -17.854248 4.858967 -7.564861 -4.168807 -12.088274 9.431698 -12.486633 -0.000000 0.000000 -0.000002 1.972264 12.623882 -0.847499 0.096836 -0.945766 11.692009 0.096836 -0.945782 11.692002 -0.000000 -0.000000 -0.000000 0.125268 1.166742 -1.166444 0.159061 -1.208000 15.001790 0.002371 0.148760 -1.826405 -0.000000 0.000000 -0.000001 0.105398 -8.812433 0.241232 0.054075 -0.708381 8.730178 0.014400 -0.366372 4.501993 0.000001 -0.000000 -0.000002 -2.212614 -22.391604 -3.355924 0.078612 -0.852955 10.531061 0.078611 -0.853014 10.531059 0.000000 -0.000001 0.000001 -50.592157 -6.199732 67.623347 22.846068 5.669047 5.684566 -9.244658 30.459198 -2.206731 1.445337 0.000005 0.000011 0.000001 -0.000000 0.000000 -92.200983 8.644997 -56.540921 10.743787 -3.064032 -8.487336 -4.726648 -15.379530 14.222441 0.853528 0.000003 -0.000001 0.000000 -0.000000 -0.000002 
247.763367 90.303093 42.084587 -0.758497 16.817961 -180.907259 11.536426 4.451116 5.632499 0.801092 0.886438 0.653553 0.807116 0.873510 0.650956 0.666773 0.977166 1.340004 24.096139 14.325193 -0.314032 0.000000 -0.000000 -0.000001 5.126519 8.828383 2.430431 -113.867217 14.381566 -34.924178 0.000247 -100.491740 0.000244 60.633119 -5.614669 74.124006 -5.552354 -7.552096 18.715417 3.715325 4.156323 3.102876 -15.226452 -16.682887 9.533577 0.000002 0.000001 -0.000000 0.528819 -14.383982 -2.992461 0.041004 0.692686 -6.775414 0.050966 0.771933 -7.555029 -0.000001 0.000003 0.000001 0.020131 -0.776178 -0.955168 0.119219 1.177066 -11.566317 0.000061 -0.026826 0.261797 -0.000000 -0.000000 -0.000001 0.299951 9.705489 -1.500761 0.031011 0.602660 -5.891445 0.001572 0.135710 -1.324421 -0.000000 -0.000000 0.000001 -11.643176 21.555561 3.242249 0.048174 0.750549 -7.344500 0.040592 0.689181 -6.741200 0.000002 -0.000000 0.000003 4.296875 -9.683768 -19.171112 -105.070084 -8.355792 24.877834 -0.000177 100.952750 0.000171 14.891774 -10.728882 -88.591365 -6.017768 8.757299 -17.864782 4.859687 -7.559355 -4.170681 -12.087131 9.436330 -12.483496 0.000001 0.000000 0.000001 1.971391 12.630574 -0.847472 0.096634 -0.944802 11.679693 0.096639 -0.944809 11.679676 0.000000 -0.000001 -0.000001 0.125851 1.170647 -1.174772 0.158899 -1.207383 14.994198 0.002388 0.149333 -1.833563 0.000000 0.000000 -0.000002 0.103736 -8.813316 0.226382 0.053964 -0.707681 8.721249 0.014341 -0.365580 4.492438 0.000000 -0.000000 0.000001 -2.223447 -22.393904 -3.379684 0.078469 -0.852213 10.521326 0.078470 -0.852213 10.521312 0.000001 -0.000001 0.000002 -47.804767 -4.773922 61.989779 24.486387 5.745877 5.646086 -5.540293 32.308967 -2.841517 2.068428 0.000001 0.000006 0.000001 0.000000 -0.000003 -97.273239 10.369681 -57.324453 1.335687 -2.489326 -8.945466 -1.788895 -12.964215 16.740333 -3.176212 -0.000011 0.000004 -0.000000 0.000001 0.000000 
